<svg width="16" height="16" viewBox="0 0 16 16" fill="none" xmlns="http://www.w3.org/2000/svg">
<path d="M14.289 2.83854L15.7205 1.40709C15.8042 1.3354 15.8722 1.24718 15.9202 1.14797C15.9682 1.04875 15.9951 0.94069 15.9994 0.830557C16.0037 0.720425 15.9851 0.610601 15.9449 0.507981C15.9047 0.40536 15.8437 0.312158 15.7658 0.234224C15.6878 0.156291 15.5946 0.0953077 15.492 0.0551035C15.3894 0.0148994 15.2796 -0.00365804 15.1694 0.000595919C15.0593 0.00484987 14.9512 0.0318234 14.852 0.0798235C14.7528 0.127824 14.6646 0.195814 14.5929 0.279527L13.1615 1.71098L11.722 0.279527C11.569 0.148516 11.3722 0.0800579 11.171 0.0878319C10.9697 0.0956058 10.7788 0.17904 10.6364 0.32146C10.494 0.463881 10.4105 0.654799 10.4028 0.856062C10.395 1.05733 10.4634 1.25411 10.5944 1.40709L12.0099 2.83854L10.5785 4.27799C10.4295 4.42782 10.3459 4.6305 10.3459 4.84177C10.3459 5.05303 10.4295 5.25572 10.5785 5.40555C10.7283 5.55449 10.931 5.6381 11.1422 5.6381C11.3535 5.6381 11.5562 5.55449 11.706 5.40555L13.1615 3.9901L14.5929 5.42154C14.7427 5.57049 14.9454 5.65409 15.1567 5.65409C15.368 5.65409 15.5706 5.57049 15.7205 5.42154C15.8694 5.27171 15.953 5.06903 15.953 4.85776C15.953 4.64649 15.8694 4.44381 15.7205 4.29398L14.289 2.83854ZM13.9612 8.78825C13.7852 8.78825 13.6013 8.73227 13.4254 8.69228C13.0691 8.61377 12.719 8.50954 12.3778 8.3804C12.0068 8.24544 11.599 8.25245 11.2329 8.40008C10.8667 8.54771 10.5681 8.82554 10.3945 9.1801L10.2186 9.53996C9.4397 9.10667 8.72396 8.56852 8.09141 7.94057C7.46347 7.30803 6.92532 6.59229 6.49203 5.81339L6.8279 5.58948C7.18246 5.41588 7.46028 5.11729 7.60792 4.75116C7.75555 4.38503 7.76256 3.97723 7.62759 3.60624C7.50062 3.26431 7.39643 2.91435 7.31571 2.55865C7.27573 2.38272 7.24374 2.19879 7.21975 2.01486C7.12264 1.45157 6.8276 0.941465 6.38777 0.576404C5.94794 0.211343 5.39221 0.015316 4.82068 0.0236257H2.4216C2.07696 0.0203897 1.73566 0.0914503 1.42095 0.23197C1.10624 0.372489 0.825504 0.579168 0.597848 0.837937C0.370192 1.09671 0.200964 1.40149 0.101685 1.73154C0.00240603 2.06159 -0.0245933 2.40915 0.0225251 2.75057C0.448551 6.10079 1.97859 9.21359 4.37097 11.5973C6.76335 13.981 9.88169 15.4997 13.2334 15.9135H13.5373C14.127 15.9144 14.6964 15.698 15.1367 15.3057C15.3897 15.0795 15.5918 14.8021 15.7296 14.4919C15.8675 14.1817 15.938 13.8458 15.9364 13.5064V11.1074C15.9266 10.5519 15.7243 10.017 15.3641 9.59407C15.0038 9.17112 14.508 8.88631 13.9612 8.78825ZM14.361 13.5864C14.3609 13.6999 14.3365 13.8122 14.2897 13.9156C14.2428 14.019 14.1744 14.1112 14.0891 14.1862C13.9997 14.2633 13.8953 14.3209 13.7823 14.3554C13.6694 14.3898 13.5506 14.4003 13.4334 14.3861C10.4384 14.0021 7.65657 12.632 5.52658 10.4918C3.39658 8.35169 2.03968 5.56336 1.66989 2.56665C1.65716 2.4495 1.66832 2.331 1.70268 2.21829C1.73704 2.10558 1.7939 2.00101 1.86981 1.9109C1.94475 1.8256 2.037 1.75723 2.14041 1.71035C2.24383 1.66347 2.35604 1.63915 2.46958 1.639H4.86866C5.05462 1.63487 5.23621 1.69568 5.38217 1.81099C5.52813 1.9263 5.62933 2.08889 5.66835 2.27076C5.70034 2.48934 5.74032 2.70526 5.7883 2.91851C5.88068 3.34006 6.00363 3.75433 6.15616 4.15803L5.03659 4.67783C4.94087 4.72175 4.85476 4.78415 4.78322 4.86144C4.71167 4.93873 4.6561 5.02939 4.61969 5.12821C4.58328 5.22704 4.56675 5.33208 4.57105 5.43732C4.57535 5.54255 4.60039 5.64589 4.64474 5.74142C5.79566 8.20667 7.77733 10.1883 10.2426 11.3393C10.4373 11.4192 10.6557 11.4192 10.8504 11.3393C10.9501 11.3036 11.0417 11.2485 11.12 11.1771C11.1982 11.1057 11.2615 11.0195 11.3062 10.9234L11.802 9.80386C12.2154 9.9517 12.6373 10.0745 13.0655 10.1717C13.2787 10.2197 13.4947 10.2597 13.7132 10.2917C13.8951 10.3307 14.0577 10.4319 14.173 10.5778C14.2883 10.7238 14.3491 10.9054 14.345 11.0914L14.361 13.5864Z" fill="#304968"/>
</svg>
