<?xml version="1.0" encoding="utf-8"?>
<!-- Generator: Adobe Illustrator 18.1.1, SVG Export Plug-In . SVG Version: 6.00 Build 0)  -->
<svg version="1.1" id="Layer_1" xmlns="http://www.w3.org/2000/svg" xmlns:xlink="http://www.w3.org/1999/xlink" x="0px" y="0px"
	 viewBox="-248 250 14 14" enable-background="new -248 250 14 14" xml:space="preserve">
<defs>
	<filter id="Adobe_OpacityMaskFilter" filterUnits="userSpaceOnUse" x="-248.7" y="249.5" width="15.5" height="15.5">
		<feColorMatrix  type="matrix" values="1 0 0 0 0  0 1 0 0 0  0 0 1 0 0  0 0 0 1 0"/>
	</filter>
</defs>
<mask maskUnits="userSpaceOnUse" x="-248.7" y="249.5" width="15.5" height="15.5" id="path-1-inside-1_3157_453">
	<path fill="#FFFFFF" filter="url(#Adobe_OpacityMaskFilter)" d="M-241,258.3l4.3,4.4c0.1,0.1,0.3,0.2,0.5,0.2
		c0.2,0,0.4-0.1,0.5-0.2s0.2-0.3,0.2-0.5s-0.1-0.4-0.2-0.5l-4.4-4.3l4.4-4.3c0.1-0.1,0.2-0.3,0.2-0.5c0-0.2-0.1-0.4-0.2-0.5
		c-0.1-0.1-0.3-0.2-0.5-0.2c-0.2,0-0.4,0.1-0.5,0.2l-4.3,4.4l-4.3-4.4c-0.1-0.1-0.1-0.1-0.2-0.2s-0.2-0.1-0.3-0.1s-0.2,0-0.3,0.1
		c-0.1,0-0.2,0.1-0.2,0.2c-0.1,0.1-0.1,0.1-0.2,0.2s-0.1,0.2-0.1,0.3c0,0.1,0,0.2,0.1,0.3c0,0.1,0.1,0.2,0.2,0.2l4.4,4.3l-4.4,4.3
		c-0.1,0.1-0.1,0.1-0.2,0.2c0,0.1-0.1,0.2-0.1,0.3c0,0.1,0,0.2,0.1,0.3c0,0.1,0.1,0.2,0.2,0.2c0.1,0.1,0.1,0.1,0.2,0.2
		c0.1,0,0.2,0.1,0.3,0.1s0.2,0,0.3-0.1s0.2-0.1,0.2-0.2L-241,258.3z"/>
</mask>
<path mask="url(#path-1-inside-1_3157_453)" fill="#3068F9" d="M-241,258.3l1.6-1.6l-1.6-1.6l-1.6,1.6L-241,258.3z M-236.7,262.6
	l-1.6,1.6l0,0L-236.7,262.6z M-236.2,262.8l0,2.2L-236.2,262.8z M-235.5,262.1h-2.2H-235.5z M-235.7,261.6l1.6-1.6l0,0L-235.7,261.6
	z M-240,257.3l-1.6-1.6l-1.6,1.6l1.6,1.6L-240,257.3z M-235.7,252.9l1.6,1.6l0,0L-235.7,252.9z M-235.5,252.4h-2.2H-235.5z
	 M-236.2,251.7v-2.2V251.7z M-236.7,252l-1.6-1.6l0,0L-236.7,252z M-241,256.3l-1.6,1.6l1.6,1.6l1.6-1.6L-241,256.3z M-245.3,252
	l-1.6,1.6l0,0L-245.3,252z M-246.3,252l1.6,1.6l0,0l0,0L-246.3,252z M-246.3,252.9l1.6-1.6l0,0L-246.3,252.9z M-242,257.3l1.6,1.6
	l1.6-1.6l-1.6-1.6L-242,257.3z M-246.3,261.6l1.6,1.6l0,0L-246.3,261.6z M-246.3,262.6l1.6-1.6l0,0l0,0L-246.3,262.6z M-245.3,262.6
	l-1.6-1.6l0,0L-245.3,262.6z M-242.6,259.8l4.3,4.4l3.1-3.1l-4.3-4.4L-242.6,259.8z M-238.2,264.2c0.5,0.5,1.3,0.9,2.1,0.9l0-4.4
	c0.4,0,0.8,0.2,1.1,0.4L-238.2,264.2z M-236.2,265c0.8,0,1.5-0.3,2.1-0.9l-3.1-3.1c0.3-0.3,0.7-0.4,1.1-0.4L-236.2,265z
	 M-234.1,264.2c0.5-0.5,0.9-1.3,0.9-2.1l-4.4,0c0-0.4,0.2-0.8,0.4-1.1L-234.1,264.2z M-233.3,262.1c0-0.8-0.3-1.5-0.9-2.1l-3.1,3.1
	c-0.3-0.3-0.4-0.7-0.4-1.1L-233.3,262.1z M-234.1,260.1l-4.4-4.3l-3.1,3.1l4.4,4.3L-234.1,260.1z M-238.5,258.8l4.4-4.3l-3.1-3.1
	l-4.4,4.3L-238.5,258.8z M-234.1,254.5c0.5-0.5,0.9-1.3,0.9-2.1h-4.4c0-0.4,0.2-0.8,0.4-1.1L-234.1,254.5z M-233.3,252.4
	c0-0.8-0.3-1.5-0.9-2.1l-3.1,3.1c-0.3-0.3-0.4-0.7-0.4-1.1H-233.3z M-234.1,250.4c-0.5-0.5-1.3-0.9-2.1-0.9v4.4
	c-0.4,0-0.8-0.2-1.1-0.4L-234.1,250.4z M-236.2,249.5c-0.8,0-1.5,0.3-2.1,0.9l3.1,3.1c-0.3,0.3-0.7,0.4-1.1,0.4V249.5z
	 M-238.2,250.4l-4.3,4.4l3.1,3.1l4.3-4.4L-238.2,250.4z M-239.4,254.7l-4.3-4.4l-3.1,3.1l4.3,4.4L-239.4,254.7z M-243.8,250.4
	c-0.3-0.3-0.6-0.5-0.9-0.6l-1.7,4.1c-0.2-0.1-0.4-0.2-0.5-0.3L-243.8,250.4z M-244.7,249.8c-0.4-0.1-0.7-0.2-1.1-0.2v4.4
	c-0.2,0-0.4,0-0.6-0.1L-244.7,249.8z M-245.8,249.5c-0.4,0-0.8,0.1-1.1,0.2l1.7,4.1c-0.2,0.1-0.4,0.1-0.6,0.1V249.5z M-247,249.8
	c-0.4,0.1-0.7,0.4-0.9,0.6l3.1,3.1c-0.1,0.1-0.3,0.3-0.5,0.3L-247,249.8z M-247.9,250.4c-0.3,0.3-0.5,0.6-0.6,0.9l4.1,1.7
	c-0.1,0.2-0.2,0.4-0.3,0.5L-247.9,250.4z M-248.5,251.3c-0.1,0.4-0.2,0.7-0.2,1.1h4.4c0,0.2,0,0.4-0.1,0.6L-248.5,251.3z
	 M-248.7,252.4c0,0.4,0.1,0.8,0.2,1.1l4.1-1.7c0.1,0.2,0.1,0.4,0.1,0.6H-248.7z M-248.5,253.6c0.1,0.4,0.4,0.7,0.6,0.9l3.1-3.1
	c0.1,0.1,0.3,0.3,0.3,0.5L-248.5,253.6z M-247.9,254.5l4.4,4.3l3.1-3.1l-4.4-4.3L-247.9,254.5z M-243.5,255.7l-4.4,4.3l3.1,3.1
	l4.4-4.3L-243.5,255.7z M-247.9,260.1c-0.3,0.3-0.5,0.6-0.6,0.9l4.1,1.7c-0.1,0.2-0.2,0.4-0.3,0.5L-247.9,260.1z M-248.5,261
	c-0.1,0.4-0.2,0.7-0.2,1.1l4.4,0c0,0.2,0,0.4-0.1,0.6L-248.5,261z M-248.7,262.1c0,0.4,0.1,0.8,0.2,1.1l4.1-1.7
	c0.1,0.2,0.1,0.4,0.1,0.6L-248.7,262.1z M-248.5,263.2c0.1,0.4,0.4,0.7,0.6,0.9l3.1-3.1c0.1,0.1,0.3,0.3,0.3,0.5L-248.5,263.2z
	 M-247.9,264.2c0.3,0.3,0.6,0.5,0.9,0.6l1.7-4.1c0.2,0.1,0.4,0.2,0.5,0.3L-247.9,264.2z M-247,264.8c0.4,0.1,0.7,0.2,1.1,0.2l0-4.4
	c0.2,0,0.4,0,0.6,0.1L-247,264.8z M-245.8,265c0.4,0,0.8-0.1,1.1-0.2l-1.7-4.1c0.2-0.1,0.4-0.1,0.6-0.1L-245.8,265z M-244.7,264.8
	c0.4-0.1,0.7-0.4,0.9-0.6l-3.1-3.1c0.1-0.1,0.3-0.3,0.5-0.3L-244.7,264.8z M-243.8,264.2l4.3-4.4l-3.1-3.1l-4.3,4.4L-243.8,264.2z"
	/>
</svg>
