<svg width="13" height="17" viewBox="0 0 13 17" fill="none" xmlns="http://www.w3.org/2000/svg">
<path d="M11.375 9.52634V6.8167C11.3738 5.6094 10.9653 4.44148 10.2217 3.51978C9.4782 2.59808 8.44761 1.98208 7.3125 1.78086V0.852088C7.3125 0.6261 7.2269 0.409368 7.07452 0.249571C6.92215 0.0897732 6.71549 0 6.5 0C6.28451 0 6.07785 0.0897732 5.92548 0.249571C5.7731 0.409368 5.6875 0.6261 5.6875 0.852088V1.78086C4.55239 1.98208 3.5218 2.59808 2.77825 3.51978C2.0347 4.44148 1.62617 5.6094 1.625 6.8167V9.52634C1.15087 9.70214 0.740186 10.0274 0.449262 10.4576C0.158339 10.8878 0.00141335 11.4018 0 11.9292V13.6334C0 13.8594 0.0856026 14.0761 0.237976 14.2359C0.390349 14.3957 0.597012 14.4855 0.8125 14.4855H3.36375C3.55085 15.2075 3.95931 15.8449 4.52611 16.2994C5.09291 16.7538 5.78654 17 6.5 17C7.21346 17 7.90709 16.7538 8.47389 16.2994C9.04069 15.8449 9.44915 15.2075 9.63625 14.4855H12.1875C12.403 14.4855 12.6097 14.3957 12.762 14.2359C12.9144 14.0761 13 13.8594 13 13.6334V11.9292C12.9986 11.4018 12.8417 10.8878 12.5507 10.4576C12.2598 10.0274 11.8491 9.70214 11.375 9.52634ZM3.25 6.8167C3.25 5.91275 3.59241 5.04582 4.2019 4.40663C4.8114 3.76744 5.63805 3.40835 6.5 3.40835C7.36195 3.40835 8.1886 3.76744 8.7981 4.40663C9.40759 5.04582 9.75 5.91275 9.75 6.8167V9.37296H3.25V6.8167ZM6.5 15.3376C6.21642 15.3358 5.93822 15.2562 5.69305 15.1067C5.44788 14.9572 5.24429 14.7431 5.1025 14.4855H7.8975C7.75571 14.7431 7.55212 14.9572 7.30695 15.1067C7.06178 15.2562 6.78358 15.3358 6.5 15.3376ZM11.375 12.7813H1.625V11.9292C1.625 11.7032 1.7106 11.4865 1.86298 11.3267C2.01535 11.1669 2.22201 11.0771 2.4375 11.0771H10.5625C10.778 11.0771 10.9847 11.1669 11.137 11.3267C11.2894 11.4865 11.375 11.7032 11.375 11.9292V12.7813Z" fill="#304968"/>
</svg>
