<svg width="16" height="15" viewBox="0 0 16 15" fill="none" xmlns="http://www.w3.org/2000/svg">
<path d="M12 3.2H12.8V4C12.8 4.21217 12.8843 4.41566 13.0343 4.56568C13.1843 4.71571 13.3878 4.8 13.6 4.8C13.8122 4.8 14.0157 4.71571 14.1657 4.56568C14.3157 4.41566 14.4 4.21217 14.4 4V3.2H15.2C15.4122 3.2 15.6157 3.11571 15.7657 2.96569C15.9157 2.81566 16 2.61217 16 2.4C16 2.18783 15.9157 1.98434 15.7657 1.83431C15.6157 1.68429 15.4122 1.6 15.2 1.6H14.4V0.8C14.4 0.587827 14.3157 0.384344 14.1657 0.234315C14.0157 0.0842854 13.8122 0 13.6 0C13.3878 0 13.1843 0.0842854 13.0343 0.234315C12.8843 0.384344 12.8 0.587827 12.8 0.8V1.6H12C11.7878 1.6 11.5843 1.68429 11.4343 1.83431C11.2843 1.98434 11.2 2.18783 11.2 2.4C11.2 2.61217 11.2843 2.81566 11.4343 2.96569C11.5843 3.11571 11.7878 3.2 12 3.2ZM15.2 6.4C14.9878 6.4 14.7843 6.48429 14.6343 6.63431C14.4843 6.78434 14.4 6.98783 14.4 7.2V12C14.4 12.2122 14.3157 12.4157 14.1657 12.5657C14.0157 12.7157 13.8122 12.8 13.6 12.8H2.4C2.18783 12.8 1.98434 12.7157 1.83431 12.5657C1.68429 12.4157 1.6 12.2122 1.6 12V4.328L6.304 9.04C6.754 9.48944 7.364 9.74189 8 9.74189C8.636 9.74189 9.246 9.48944 9.696 9.04L11.672 7.064C11.8226 6.91336 11.9073 6.70904 11.9073 6.496C11.9073 6.28296 11.8226 6.07864 11.672 5.928C11.5214 5.77736 11.317 5.69273 11.104 5.69273C10.891 5.69273 10.6866 5.77736 10.536 5.928L8.56 7.904C8.41046 8.05058 8.2094 8.13269 8 8.13269C7.7906 8.13269 7.58954 8.05058 7.44 7.904L2.728 3.2H8.8C9.01217 3.2 9.21566 3.11571 9.36569 2.96569C9.51571 2.81566 9.6 2.61217 9.6 2.4C9.6 2.18783 9.51571 1.98434 9.36569 1.83431C9.21566 1.68429 9.01217 1.6 8.8 1.6H2.4C1.76348 1.6 1.15303 1.85286 0.702944 2.30294C0.252856 2.75303 0 3.36348 0 4V12C0 12.6365 0.252856 13.247 0.702944 13.6971C1.15303 14.1471 1.76348 14.4 2.4 14.4H13.6C14.2365 14.4 14.847 14.1471 15.2971 13.6971C15.7471 13.247 16 12.6365 16 12V7.2C16 6.98783 15.9157 6.78434 15.7657 6.63431C15.6157 6.48429 15.4122 6.4 15.2 6.4Z" fill="#304968"/>
</svg>
