<svg width="14" height="14" viewBox="0 0 14 14" fill="none" xmlns="http://www.w3.org/2000/svg">
<mask id="path-1-inside-1_3157_453" fill="white">
<path d="M7.62344 7.693L13.1835 7.69742C13.3498 7.69742 13.5093 7.63135 13.6269 7.51374C13.7445 7.39614 13.8106 7.23663 13.8106 7.07031C13.8106 6.904 13.7445 6.74449 13.6269 6.62689C13.5093 6.50928 13.3498 6.44321 13.1835 6.44321L7.62344 6.44763L7.62786 0.887611C7.62786 0.721293 7.56179 0.561787 7.44418 0.444182C7.32658 0.326578 7.16707 0.260508 7.00075 0.260508C6.83444 0.260508 6.67493 0.326578 6.55733 0.444182C6.43972 0.561787 6.37365 0.721293 6.37365 0.887611L6.37807 6.44763L0.818051 6.44321C0.735604 6.44287 0.653907 6.45886 0.57767 6.49026C0.501434 6.52165 0.432168 6.56783 0.373869 6.62613C0.315569 6.68443 0.26939 6.7537 0.237995 6.82993C0.2066 6.90617 0.190611 6.98787 0.190949 7.07031C0.19061 7.15276 0.2066 7.23446 0.237995 7.31069C0.26939 7.38693 0.31557 7.4562 0.373869 7.5145C0.432169 7.57279 0.501434 7.61897 0.57767 7.65037C0.653906 7.68176 0.735604 7.69775 0.818052 7.69742L6.37807 7.693L6.37365 13.253C6.37331 13.3355 6.3893 13.4172 6.4207 13.4934C6.45209 13.5696 6.49827 13.6389 6.55657 13.6972C6.61487 13.7555 6.68414 13.8017 6.76037 13.8331C6.83661 13.8645 6.91831 13.8805 7.00075 13.8801C7.0832 13.8805 7.1649 13.8645 7.24114 13.8331C7.31737 13.8017 7.38664 13.7555 7.44494 13.6972C7.50324 13.6389 7.54942 13.5696 7.58081 13.4934C7.61221 13.4172 7.6282 13.3355 7.62786 13.253L7.62344 7.693Z"/>
</mask>
<path d="M7.62344 7.693L13.1835 7.69742C13.3498 7.69742 13.5093 7.63135 13.6269 7.51374C13.7445 7.39614 13.8106 7.23663 13.8106 7.07031C13.8106 6.904 13.7445 6.74449 13.6269 6.62689C13.5093 6.50928 13.3498 6.44321 13.1835 6.44321L7.62344 6.44763L7.62786 0.887611C7.62786 0.721293 7.56179 0.561787 7.44418 0.444182C7.32658 0.326578 7.16707 0.260508 7.00075 0.260508C6.83444 0.260508 6.67493 0.326578 6.55733 0.444182C6.43972 0.561787 6.37365 0.721293 6.37365 0.887611L6.37807 6.44763L0.818051 6.44321C0.735604 6.44287 0.653907 6.45886 0.57767 6.49026C0.501434 6.52165 0.432168 6.56783 0.373869 6.62613C0.315569 6.68443 0.26939 6.7537 0.237995 6.82993C0.2066 6.90617 0.190611 6.98787 0.190949 7.07031C0.19061 7.15276 0.2066 7.23446 0.237995 7.31069C0.26939 7.38693 0.31557 7.4562 0.373869 7.5145C0.432169 7.57279 0.501434 7.61897 0.57767 7.65037C0.653906 7.68176 0.735604 7.69775 0.818052 7.69742L6.37807 7.693L6.37365 13.253C6.37331 13.3355 6.3893 13.4172 6.4207 13.4934C6.45209 13.5696 6.49827 13.6389 6.55657 13.6972C6.61487 13.7555 6.68414 13.8017 6.76037 13.8331C6.83661 13.8645 6.91831 13.8805 7.00075 13.8801C7.0832 13.8805 7.1649 13.8645 7.24114 13.8331C7.31737 13.8017 7.38664 13.7555 7.44494 13.6972C7.50324 13.6389 7.54942 13.5696 7.58081 13.4934C7.61221 13.4172 7.6282 13.3355 7.62786 13.253L7.62344 7.693Z" fill="#515578"/>
<path d="M7.62344 7.693L7.62503 5.693L5.62185 5.69141L5.62344 7.69459L7.62344 7.693ZM13.1835 7.69742L13.1819 9.69742L13.1835 9.69742L13.1835 7.69742ZM13.6269 7.51374L15.0411 8.92796L13.6269 7.51374ZM13.6269 6.62689L12.2127 8.0411L13.6269 6.62689ZM13.1835 6.44321L13.1835 4.44321L13.1819 4.44321L13.1835 6.44321ZM7.62344 6.44763L5.62344 6.44604L5.62185 8.44922L7.62503 8.44763L7.62344 6.44763ZM7.62786 0.887611L9.62786 0.8892L9.62786 0.887611L7.62786 0.887611ZM7.44418 0.444182L6.02997 1.8584L7.44418 0.444182ZM6.55733 0.444182L5.14311 -0.970031L6.55733 0.444182ZM6.37365 0.887611L4.37365 0.887611L4.37365 0.8892L6.37365 0.887611ZM6.37807 6.44763L6.37648 8.44763L8.37966 8.44922L8.37807 6.44604L6.37807 6.44763ZM0.818051 6.44321L0.809851 8.44321L0.816462 8.44321L0.818051 6.44321ZM0.190949 7.07031L2.19093 7.07851L2.19097 7.07031L2.19093 7.06211L0.190949 7.07031ZM0.818052 7.69742L0.816463 5.69741L0.809852 5.69743L0.818052 7.69742ZM6.37807 7.693L8.37807 7.69459L8.37966 5.69141L6.37648 5.693L6.37807 7.693ZM6.37365 13.253L8.37365 13.2612L8.37365 13.2546L6.37365 13.253ZM7.00075 13.8801L7.00895 11.8801L7.00075 11.8801L6.99255 11.8801L7.00075 13.8801ZM7.62786 13.253L5.62785 13.2546L5.62787 13.2612L7.62786 13.253ZM7.62185 9.693L13.1819 9.69742L13.185 5.69742L7.62503 5.693L7.62185 9.693ZM13.1835 9.69742C13.8802 9.69742 14.5484 9.42063 15.0411 8.92796L12.2127 6.09953C12.4701 5.84206 12.8193 5.69742 13.1835 5.69742L13.1835 9.69742ZM15.0411 8.92796C15.5338 8.43528 15.8106 7.76706 15.8106 7.07031L11.8106 7.07031C11.8106 6.7062 11.9552 6.357 12.2127 6.09953L15.0411 8.92796ZM15.8106 7.07031C15.8106 6.37356 15.5338 5.70535 15.0411 5.21267L12.2127 8.0411C11.9552 7.78363 11.8106 7.43443 11.8106 7.07031L15.8106 7.07031ZM15.0411 5.21267C14.5484 4.71999 13.8802 4.44321 13.1835 4.44321L13.1835 8.44321C12.8193 8.44321 12.4701 8.29857 12.2127 8.0411L15.0411 5.21267ZM13.1819 4.44321L7.62185 4.44763L7.62503 8.44763L13.185 8.44321L13.1819 4.44321ZM9.62344 6.44922L9.62786 0.8892L5.62786 0.886022L5.62344 6.44604L9.62344 6.44922ZM9.62786 0.887611C9.62786 0.190859 9.35107 -0.477355 8.8584 -0.970031L6.02997 1.8584C5.7725 1.60093 5.62786 1.25173 5.62786 0.887611L9.62786 0.887611ZM8.8584 -0.970031C8.36572 -1.46271 7.69751 -1.73949 7.00075 -1.73949L7.00075 2.26051C6.63664 2.26051 6.28744 2.11586 6.02997 1.8584L8.8584 -0.970031ZM7.00075 -1.73949C6.304 -1.73949 5.63579 -1.46271 5.14311 -0.970031L7.97154 1.8584C7.71407 2.11586 7.36487 2.26051 7.00075 2.26051L7.00075 -1.73949ZM5.14311 -0.970031C4.65044 -0.477355 4.37365 0.190859 4.37365 0.887611L8.37365 0.887611C8.37365 1.25173 8.22901 1.60093 7.97154 1.8584L5.14311 -0.970031ZM4.37365 0.8892L4.37807 6.44922L8.37807 6.44604L8.37365 0.886022L4.37365 0.8892ZM6.37966 4.44763L0.819639 4.44321L0.816462 8.44321L6.37648 8.44763L6.37966 4.44763ZM0.826251 4.44323C0.479786 4.44181 0.136465 4.509 -0.183907 4.64093L1.33925 8.33958C1.17135 8.40872 0.991423 8.44394 0.809851 8.44319L0.826251 4.44323ZM-0.183907 4.64093C-0.504274 4.77286 -0.795351 4.96692 -1.04034 5.21192L1.78808 8.04034C1.65969 8.16874 1.50714 8.27044 1.33925 8.33958L-0.183907 4.64093ZM-1.04034 5.21192C-1.28534 5.45691 -1.4794 5.74799 -1.61133 6.06836L2.08732 7.59151C2.01818 7.7594 1.91648 7.91195 1.78808 8.04034L-1.04034 5.21192ZM-1.61133 6.06836C-1.74326 6.38873 -1.81046 6.73205 -1.80903 7.07851L2.19093 7.06211C2.19168 7.24368 2.15646 7.42361 2.08732 7.59151L-1.61133 6.06836ZM-1.80903 7.06211C-1.81046 7.40858 -1.74326 7.7519 -1.61133 8.07227L2.08732 6.54912C2.15646 6.71702 2.19168 6.89694 2.19093 7.07851L-1.80903 7.06211ZM-1.61133 8.07227C-1.4794 8.39264 -1.28533 8.68372 -1.04034 8.92871L1.78808 6.10028C1.91647 6.22867 2.01818 6.38122 2.08732 6.54912L-1.61133 8.07227ZM-1.04034 8.92871C-0.795355 9.1737 -0.50428 9.36776 -0.183907 9.49969L1.33925 5.80105C1.50715 5.87019 1.65969 5.97189 1.78808 6.10028L-1.04034 8.92871ZM-0.183907 9.49969C0.136466 9.63163 0.479788 9.69882 0.826252 9.6974L0.809852 5.69743C0.991422 5.69669 1.17135 5.7319 1.33925 5.80105L-0.183907 9.49969ZM0.81964 9.69742L6.37966 9.693L6.37648 5.693L0.816463 5.69742L0.81964 9.69742ZM4.37807 7.69141L4.37365 13.2514L8.37365 13.2546L8.37807 7.69459L4.37807 7.69141ZM4.37367 13.2448C4.37225 13.5913 4.43944 13.9346 4.57137 14.255L8.27002 12.7318C8.33917 12.8997 8.37438 13.0797 8.37364 13.2612L4.37367 13.2448ZM4.57137 14.255C4.70331 14.5753 4.89737 14.8664 5.14236 15.1114L7.97079 12.283C8.09918 12.4114 8.20088 12.5639 8.27002 12.7318L4.57137 14.255ZM5.14236 15.1114C5.38735 15.3564 5.67842 15.5505 5.9988 15.6824L7.52195 11.9837C7.68985 12.0529 7.8424 12.1546 7.97079 12.283L5.14236 15.1114ZM5.9988 15.6824C6.31917 15.8143 6.66249 15.8815 7.00895 15.8801L6.99255 11.8801C7.17412 11.8794 7.35405 11.9146 7.52195 11.9837L5.9988 15.6824ZM6.99255 15.8801C7.33901 15.8815 7.68234 15.8143 8.00271 15.6824L6.47956 11.9837C6.64746 11.9146 6.82739 11.8794 7.00895 11.8801L6.99255 15.8801ZM8.00271 15.6824C8.32309 15.5505 8.61416 15.3564 8.85915 15.1114L6.03072 12.283C6.15911 12.1546 6.31166 12.0529 6.47956 11.9837L8.00271 15.6824ZM8.85915 15.1114C9.10414 14.8664 9.2982 14.5753 9.43013 14.255L5.73149 12.7318C5.80063 12.5639 5.90233 12.4114 6.03072 12.283L8.85915 15.1114ZM9.43013 14.255C9.56207 13.9346 9.62926 13.5913 9.62784 13.2448L5.62787 13.2612C5.62713 13.0797 5.66234 12.8997 5.73149 12.7318L9.43013 14.255ZM9.62786 13.2514L9.62344 7.69141L5.62344 7.69459L5.62786 13.2546L9.62786 13.2514Z" fill="#3068F9" mask="url(#path-1-inside-1_3157_453)"/>
</svg>
