<svg width="17" height="13" viewBox="0 0 17 13" fill="none" xmlns="http://www.w3.org/2000/svg">
<path d="M8.74369 6.66824C9.15656 6.31504 9.48772 5.87821 9.71469 5.38737C9.94165 4.89653 10.0591 4.36319 10.0591 3.82353C10.0591 2.80947 9.6515 1.83694 8.92594 1.11989C8.20038 0.402835 7.21632 1.36814e-07 6.19022 1.36814e-07C5.16413 1.36814e-07 4.18006 0.402835 3.45451 1.11989C2.72895 1.83694 2.32133 2.80947 2.32133 3.82353C2.32133 4.36319 2.43879 4.89653 2.66576 5.38737C2.89273 5.87821 3.22389 6.31504 3.63676 6.66824C2.55358 7.15297 1.63458 7.93576 0.989647 8.92301C0.344714 9.91025 0.00113889 11.0602 0 12.2353C0 12.4381 0.0815228 12.6326 0.226634 12.776C0.371746 12.9194 0.568559 13 0.773778 13C0.978997 13 1.17581 12.9194 1.32092 12.776C1.46603 12.6326 1.54756 12.4381 1.54756 12.2353C1.54756 11.0184 2.03669 9.85138 2.90736 8.99092C3.77803 8.13046 4.95891 7.64706 6.19022 7.64706C7.42154 7.64706 8.60242 8.13046 9.47309 8.99092C10.3438 9.85138 10.8329 11.0184 10.8329 12.2353C10.8329 12.4381 10.9144 12.6326 11.0595 12.776C11.2046 12.9194 11.4015 13 11.6067 13C11.8119 13 12.0087 12.9194 12.1538 12.776C12.2989 12.6326 12.3804 12.4381 12.3804 12.2353C12.3793 11.0602 12.0357 9.91025 11.3908 8.92301C10.7459 7.93576 9.82687 7.15297 8.74369 6.66824ZM6.19022 6.11765C5.73111 6.11765 5.2823 5.9831 4.90056 5.73102C4.51882 5.47894 4.22129 5.12065 4.04559 4.70145C3.86989 4.28226 3.82392 3.82098 3.91349 3.37597C4.00306 2.93095 4.22415 2.52218 4.54879 2.20134C4.87344 1.88051 5.28706 1.66201 5.73735 1.57349C6.18765 1.48497 6.65439 1.53041 7.07856 1.70404C7.50273 1.87768 7.86527 2.17172 8.12034 2.54899C8.37541 2.92625 8.51156 3.3698 8.51156 3.82353C8.51156 4.43197 8.26699 5.01549 7.83166 5.44572C7.39632 5.87595 6.80588 6.11765 6.19022 6.11765ZM13.7268 6.36235C14.222 5.81125 14.5455 5.13045 14.6583 4.40191C14.7711 3.67336 14.6685 2.92812 14.3627 2.25588C14.0569 1.58365 13.5611 1.01308 12.9348 0.612853C12.3086 0.212626 11.5787 -0.000196988 10.8329 1.36814e-07C10.6277 1.36814e-07 10.4309 0.0805671 10.2857 0.223977C10.1406 0.367387 10.0591 0.561893 10.0591 0.764706C10.0591 0.967519 10.1406 1.16202 10.2857 1.30543C10.4309 1.44884 10.6277 1.52941 10.8329 1.52941C11.4485 1.52941 12.039 1.77111 12.4743 2.20134C12.9097 2.63157 13.1542 3.21509 13.1542 3.82353C13.1531 4.22518 13.0454 4.61951 12.8417 4.96709C12.638 5.31466 12.3455 5.60329 11.9936 5.80412C11.8788 5.86952 11.783 5.96292 11.7153 6.07539C11.6475 6.18786 11.6101 6.31563 11.6067 6.44647C11.6034 6.57629 11.6337 6.70479 11.6946 6.81984C11.7555 6.9349 11.8451 7.03273 11.9549 7.10412L12.2566 7.30294L12.3572 7.35647C13.2899 7.79367 14.0768 8.48517 14.6252 9.34953C15.1735 10.2139 15.4605 11.2151 15.4523 12.2353C15.4523 12.4381 15.5339 12.6326 15.679 12.776C15.8241 12.9194 16.0209 13 16.2261 13C16.4313 13 16.6282 12.9194 16.7733 12.776C16.9184 12.6326 16.9999 12.4381 16.9999 12.2353C17.0062 11.0618 16.7088 9.90619 16.136 8.87828C15.5631 7.85037 14.7338 6.9843 13.7268 6.36235Z" fill="#304968"/>
</svg>
